<svg xmlns="http://www.w3.org/2000/svg" viewBox="0 0 100.118 100">
  <g  transform="translate(0.118)">
    <circle cx="50" cy="50" r="50" fill="#4992c4"/>
    <g transform="translate(0 36.776)">
      <path d="M282.986,2615.158a14.647,14.647,0,0,1-3.289.469c-2.717.093-5.439.183-8.154.092a43.17,43.17,0,0,1-4.891-.7,2.521,2.521,0,0,1-2.251-1.977,26.726,26.726,0,0,1-.651-10.679,10.578,10.578,0,0,1,.706-2.088c.471-1.2,1.29-1.488,2.628-1.412a71.3,71.3,0,0,0,8.592-.065c.634-.039,1.339-.9,1.789-1.539,1.752-2.481,3.21-5.193,5.154-7.506a27.083,27.083,0,0,1,11.906-8.076c1.611-.572,3.159-1.324,4.724-2.021a17.493,17.493,0,0,0,1.524-.9l7.458-4.2a3.282,3.282,0,0,0,1.656-.685c1.557-1.232,3.046-2.555,4.658-3.712.636-.456,1.683-.967,2.266-.742,1.083.415.724,1.566.372,2.419a11.782,11.782,0,0,1-1.508,2.925c-1.617,2.009-3.391,3.894-5.092,5.837-.342.391-.646.817-1.093,1.386l9.143,4.361c-.1-4.058-.26-7.864-.249-11.669a5.929,5.929,0,0,1,.844-3.126c.575-.866,1.69-1.943,2.548-1.926,1.252.027,1.29,1.614,1.447,2.661.654,4.37,1.222,8.753,1.832,13.129.06.435.194.861.363,1.593,2.053-1.095,3.941-2.036,5.746-3.113a2.474,2.474,0,0,0,.9-1.5c1.021-4.653,4.418-7.546,7.824-10.4.473-.4,1.413-.243,2.136-.343a6.211,6.211,0,0,1,.014,2.049c-1.055,3.046-2.242,6.046-3.337,9.08a11.793,11.793,0,0,1-3.685,5.592c-3.182,2.445-6.5,4.713-9.722,7.107a4.549,4.549,0,0,0-1.412,1.674c-.9,1.985-2.183,3.609-4.331,4.159a3.578,3.578,0,0,0-2.519,1.9,5.045,5.045,0,0,1-.792,1.13s-1.826,2.295-2.717,2.6c-1.529.531-2.786-.116-3.57,1.272a6.64,6.64,0,0,1-5.294,3.335c-2.834.371-5.64.954-8.473,1.344-1.206.166-2.468-.06-3.667.13-2.163.343-4.293.891-6.448,1.289Zm3.071-2.012c1.476-.307,2.985-.443,4.477-.675,1.712-.266,3.413-.619,5.131-.833,2.832-.353,5.673-.642,8.513-.925,3.358-.335,5.235-2.435,6.193-5.375,1.211-3.718,2.215-7.5,3.272-11.271.333-1.185.443-2.467-.523-3.39-2.535-2.422-5.155-4.758-7.749-7.119a1.534,1.534,0,0,0-.709-.42c-.594-.1-1.2-.1-1.8-.144a5.016,5.016,0,0,0,.633,1.545c1.89,2.086,3.844,4.114,5.78,6.158,1.3,1.368,1.273,2.005.049,3.408-2.362,2.7-4.9,5.274-6.381,8.647a3.088,3.088,0,0,1-1.995,1.44,35.785,35.785,0,0,1-4.833.433,24.817,24.817,0,0,0-9.69,2.184,4.136,4.136,0,0,1-1.017.223l-.129-.349a8.378,8.378,0,0,1,1.906-1.273,34.4,34.4,0,0,1,11.037-1.78c2.121.021,4.137-.162,4.669-2.8a1.818,1.818,0,0,1,.406-.718c1.731-2.155,3.4-4.361,5.238-6.425.88-.991.893-1.65-.038-2.54q-2.252-2.155-4.376-4.442a23.825,23.825,0,0,1-2.133-2.71c-.473-.685-.487-1.638.33-1.9a45,45,0,0,1,4.885-1.041c.041-.008.094.041.133.03.66-.173,1.5-.153,1.943-.562a40.479,40.479,0,0,0,4.2-4.408,35.713,35.713,0,0,0,2.848-4.522c.2-.343.063-.874.094-1.677-.978.755-1.624,1.265-2.282,1.757a47.047,47.047,0,0,1-5.809,4.241c-4.9,2.589-9.933,4.945-14.956,7.3-4.291,2.012-8.226,4.479-11.069,8.325-1.448,1.958-2.689,4.071-3.951,6.158-.675,1.117-1.382,2.114-2.828,2.138-2.687.046-5.376.1-8.062.055-1.839-.03-2.184.091-2.589,1.877a22.8,22.8,0,0,0,.344,10.659,1.918,1.918,0,0,0,1.808,1.638c2.845.208,5.692.383,8.538.569a20.7,20.7,0,0,0,2.971.16Zm25.171-7.328a3.317,3.317,0,0,0,3.341-1.038,9.246,9.246,0,0,0,2.3-3.219c1.126-3.73,1.942-7.551,2.914-11.326a2.241,2.241,0,0,0-1.4-2.9c-3.594-1.7-7.165-3.443-10.773-5.114a4.1,4.1,0,0,0-1.526-.045,4.63,4.63,0,0,0,.691,1.348c2.107,2,4.24,3.974,6.416,5.9a4.345,4.345,0,0,1,1.289,5c-.6,1.885-1.2,3.77-1.742,5.672C312.2,2601.978,311.737,2603.875,311.228,2605.819Zm7.233-5.249a4.893,4.893,0,0,0,4.211-3.091,20.6,20.6,0,0,0,1.614-9.711c-.48-5.026-1.24-10.026-1.9-15.035a7.99,7.99,0,0,0-.378-1.467c-.241-.721-.815-.906-1.213-.292a7.23,7.23,0,0,0-1.407,3.02,53.706,53.706,0,0,0-.024,7.568,21.5,21.5,0,0,0,.974,5.816,5.774,5.774,0,0,1,.329,3.3c-.238,1.124-.428,2.257-.682,3.379C319.513,2596.151,319.008,2598.24,318.461,2600.57Zm6.215-5.814c1.747-1.125,3.427-2.141,5.037-3.257,3.435-2.381,6.741-4.859,8.164-9.075,1.029-3.046,2.27-6.023,3.394-9.039a4.78,4.78,0,0,0,.1-1.118,3.624,3.624,0,0,0-.847.36c-3,2.709-6.356,5.149-7.327,9.409a5.028,5.028,0,0,1-3.09,3.641c-1.352.6-2.675,1.264-3.985,1.949-.333.174-.771.51-.81.816C325.055,2590.471,324.89,2592.511,324.676,2594.756Z" transform="translate(-263.468 -2569.372)" fill="#fff" stroke="#fff" stroke-miterlimit="10" stroke-width="0.25"/>
    </g>
  </g>
</svg>