<svg xmlns="http://www.w3.org/2000/svg" width="101.107" height="100.714" viewBox="0 0 101.107 100.714">
  <circle cx="50.357" cy="50.357" r="50.357" fill="#26787b"/>
  <g transform="translate(37.256 31.064)">
    <path d="M1336.376,1126.206c-.067-2.523-.261-5.05-.172-7.567a31.727,31.727,0,0,0-2.667-13.238,149.916,149.916,0,0,0-13.654-25.37,16.755,16.755,0,0,0-3.1-2.886c-.124-.11-.349-.108-.842-.246a109.536,109.536,0,0,1,8.33,18.1l-.27.132c-.177-.372-.376-.735-.527-1.117-2.1-5.333-4.134-10.7-7.187-15.587a38.034,38.034,0,0,0-3.163-4,8.3,8.3,0,0,0-1.2-.969,4.07,4.07,0,0,0,.132,3.909,30.128,30.128,0,0,0,1.978,2.982,13.757,13.757,0,0,1,3,6.647c.278,2.554,1.927,4.079,3.139,5.971.389.607.8,1.2,1.207,1.8l-.265.188c-.216-.27-.434-.539-.647-.812-1.318-1.695-2.611-3.408-3.958-5.078a3.382,3.382,0,0,0-3.323-1.144c-.169.023-.335.065-.5.1-4.8.976-5.74,1.675-7.155,6.87a3.319,3.319,0,0,0,.115,1.146,3.171,3.171,0,0,0,1.086-.347c.734-.6,1.4-1.291,2.082-1.949a8.056,8.056,0,0,1,1.625-1.527c2.211-1.127,3.312-.942,4.227,1a48.284,48.284,0,0,1,2.049,4.784c.735,2.137.129,3.463-1.907,4.394-1.735.793-3.505,1.516-5.288,2.2a5.938,5.938,0,0,0-4.012,4.284,4.5,4.5,0,0,0,.057,1.248,3.784,3.784,0,0,0,1.145-.123,19.1,19.1,0,0,0,2.446-1.276c2.015-1.27,5.474-1.4,7.1,1.2a4.955,4.955,0,0,0,3.155,1.945c.626.165,1.264.288,1.889.457a6.939,6.939,0,0,1,5.071,7.541c-.25,2.063-.442,4.133-.651,6.2-.081.8.439,1.176,1.092,1.4.409.139.845.2,1.391.323-1.911.653-3.064-.331-2.826-2.156.283-2.163.527-4.335.683-6.511a6.625,6.625,0,0,0-4.08-6.084,20.777,20.777,0,0,0-2.754-.759,5.462,5.462,0,0,1-3.011-1.791c-2.189-2.539-4.209-2.834-7.127-1.156-.148.085-.3.171-.439.263a6.565,6.565,0,0,1-7.307.029,12.091,12.091,0,0,0-3.711-1.252,3.029,3.029,0,0,0-2.986,1.24,8.12,8.12,0,0,1-5.258,3,6.593,6.593,0,0,0-5.336,7.553c.231,1.93.418,3.865.672,5.791a1.546,1.546,0,0,1-1.26,1.892,11.65,11.65,0,0,1-5.374.052,20.792,20.792,0,0,1-3.349-.9,1.93,1.93,0,0,1-1.463-2.294c.188-2.2.086-4.422.09-6.636a32.218,32.218,0,0,1,2.94-13.494c1.731-3.781,3.609-7.5,5.382-11.258a4.881,4.881,0,0,0,.449-1.858q.138-3.834.148-7.672a10.942,10.942,0,0,1,2.111-5.779c.23-.368.891-.468,1.354-.691a4.546,4.546,0,0,1,.61,1.372,4.039,4.039,0,0,1-.33,1.573,7.2,7.2,0,0,0-.117,5.427c.322-.438.572-.739.781-1.067,1.189-1.869,2.339-3.764,3.561-5.612a7.681,7.681,0,0,1,3.832-2.756,3.517,3.517,0,0,0,1.069-.714c.72-.675,1.372-1.424,2.1-2.09s1.3-.487,1.529.486a5.05,5.05,0,0,1-.671,4.027,32.749,32.749,0,0,0-2.164,3.224c-1.02,2.069-1.867,4.225-2.762,6.354a3.924,3.924,0,0,0-.1,1c2.6-1.806,5.088-.954,7.541-.116,2.82.963,3.393,3.6,4.355,6.3,1.045-2.594,1.579-5.311,4.37-6.272,2.445-.842,4.934-1.74,7.624.112a15.47,15.47,0,0,0-.259-1.54,24.3,24.3,0,0,0-4.257-8.216,5.284,5.284,0,0,1-1.255-4.668c.319-1.264.78-1.4,1.724-.547l.074.07c1.34,1.218,2.487,2.592,4.312,3.288,2.346.894,3.232,3.316,4.584,5.213.571.8.989,1.711,1.495,2.561.18.3.41.575.705.98a7.314,7.314,0,0,0-.125-5.525,4.89,4.89,0,0,1-.284-1.784c.017-.368.33-.975.589-1.02a1.454,1.454,0,0,1,1.222.462,10.75,10.75,0,0,1,2.247,5.829c.035,2.592.026,5.187.162,7.774a6.4,6.4,0,0,0,.761,2.492,106.575,106.575,0,0,1,6.424,14.258,30.188,30.188,0,0,1,1.524,10.067c-.017,2.25.094,4.5.1,6.75a4.256,4.256,0,0,1-.357,1.186Zm-42.317-49.262c-.414.071-.611.045-.711.131a15.624,15.624,0,0,0-3,2.694,152.183,152.183,0,0,0-12.605,22.689c-1.748,3.9-3.382,7.867-3.727,12.171-.261,3.257-.205,6.541-.282,9.813-.033,1.416.207,1.957,1.56,2.237,2.188.453,4.42.722,6.644.968a3.351,3.351,0,0,0,1.762-.425,1.3,1.3,0,0,0,.586-1.018c-.151-2.073-.346-4.145-.622-6.2a7.006,7.006,0,0,1,1.765-5.672,8.106,8.106,0,0,1,4.861-2.392,5.03,5.03,0,0,0,3.523-2.078c1.387-2.329,4.892-2.485,6.942-1.2a22.03,22.03,0,0,0,2.632,1.361c.307.139.9.234,1.014.083a1.465,1.465,0,0,0,.166-1.111,5.98,5.98,0,0,0-3.938-4.356c-1.875-.724-3.736-1.495-5.561-2.337-1.882-.868-2.487-2.189-1.8-4.16a36.979,36.979,0,0,1,2.142-4.964c.935-1.793,2.2-2.1,3.981-1.111a7.929,7.929,0,0,1,1.46,1.253c.838.794,1.63,1.641,2.5,2.395.255.221.717.2,1.084.3a4.737,4.737,0,0,0,.072-1.164c-.748-4.009-2.958-6.5-7.2-6.84-.135-.011-.267-.055-.4-.078a3.381,3.381,0,0,0-3.407,1.167c-1.325,1.644-2.594,3.333-3.894,5-.223.285-.479.545-.72.816l-.224-.2c.439-.635.894-1.261,1.314-1.909,1.182-1.822,2.745-3.317,3.012-5.778a13.447,13.447,0,0,1,2.9-6.468,34.509,34.509,0,0,0,2.082-3.159,3.337,3.337,0,0,0-.04-3.839c-.254.207-.519.408-.769.628a17.052,17.052,0,0,0-4.223,5.606c-2.19,4.693-4.248,9.447-6.359,14.176l-.512,1.147-.288-.136A106.872,106.872,0,0,1,1294.059,1076.944Zm10.9,31.379c.17-.124.241-.152.272-.2a4.385,4.385,0,0,0,.286-.541,6.178,6.178,0,0,1,3.845-3.424c1.849-.69,3.671-1.46,5.484-2.243,1.475-.636,2.09-1.578,1.584-3.088a53.638,53.638,0,0,0-2.651-6.159,1.743,1.743,0,0,0-1.345-.588,3.6,3.6,0,0,0-2.886,1.5,15.723,15.723,0,0,1-1.665,1.8c-.782.705-1.5,1.7-2.807,1.024-1.688.728-2.451-.655-3.42-1.523-.48-.43-.876-.953-1.327-1.416a6.527,6.527,0,0,0-.977-.893c-1.056-.712-2.681-.769-3.047,0a51.935,51.935,0,0,0-2.7,6.357c-.487,1.512.12,2.353,1.591,2.991,1.781.771,3.571,1.527,5.39,2.2a6.334,6.334,0,0,1,3.951,3.457A7.961,7.961,0,0,0,1304.955,1108.323Zm22.14-17.286a5.322,5.322,0,0,0,.223-.925c.005-2.047,0-4.093-.014-6.14a11.032,11.032,0,0,0-2.073-5.689c-.15-.245-.518-.355-.785-.528a2.738,2.738,0,0,0-.378.96,12.262,12.262,0,0,0,.307,1.384c.2,1.4.412,2.8.51,4.206.061.871-.359,1.863-.072,2.612A32.343,32.343,0,0,0,1327.094,1091.037Zm-44.33-.329.306.086c.725-1.256,1.455-2.51,2.171-3.772a.8.8,0,0,0,.1-.49,12.447,12.447,0,0,1,.632-7.5.159.159,0,0,0,.017-.1c-.123-.391-.25-.781-.376-1.171-.308.215-.728.362-.907.656a11.2,11.2,0,0,0-2.02,6.617c.1,1.559.015,3.129.02,4.694C1282.711,1090.059,1282.745,1090.383,1282.764,1090.708Z" transform="translate(-1273.262 -1073.041)" stroke="#fff" stroke-miterlimit="10" stroke-width="0.75"/>
    <path d="M1445.731,1230.982c-.346.3-.652.782-1.046.869-2.016.442-4.053.785-6.086,1.149-.143.025-.306-.063-.508-.3a4.656,4.656,0,0,1,.637-.246q3.211-.74,6.428-1.456a2.571,2.571,0,0,1,.589.005Z" transform="translate(-1382.631 -1177.836)" stroke="#fff" stroke-miterlimit="10" stroke-width="0.75"/>
  </g>
</svg>
