<svg xmlns="http://www.w3.org/2000/svg" width="80" height="20" viewBox="0 0 80 20" fill="none">
<path d="M21.0101 7.0249H29.0967V8.52517H25.9171V16.9589H24.1686V8.52517H21.0031V7.0249H21.0101ZM28.7513 9.76604H30.2459V11.1541H30.2741C30.3235 10.9578 30.4151 10.7686 30.5491 10.5863C30.683 10.404 30.8452 10.2287 31.0355 10.0815C31.2259 9.92729 31.4374 9.80811 31.6701 9.70996C31.9027 9.61882 32.1424 9.56975 32.3821 9.56975C32.5654 9.56975 32.6994 9.57676 32.7699 9.58377C32.8404 9.59078 32.9109 9.6048 32.9885 9.61181V11.1401C32.8757 11.1191 32.7628 11.1051 32.643 11.091C32.5231 11.077 32.4103 11.07 32.2975 11.07C32.0296 11.07 31.7758 11.1261 31.5361 11.2313C31.2964 11.3364 31.0919 11.4977 30.9157 11.701C30.7394 11.9113 30.5984 12.1637 30.4927 12.4721C30.3869 12.7806 30.3376 13.1311 30.3376 13.5307V16.9519H28.7442V9.76604L28.7513 9.76604ZM40.3136 16.9589H38.7485V15.9564H38.7203C38.5229 16.3209 38.2338 16.6084 37.8461 16.8257C37.4583 17.043 37.0635 17.1552 36.6616 17.1552C35.7098 17.1552 35.0189 16.9239 34.5959 16.4541C34.1729 15.9844 33.9614 15.2764 33.9614 14.3299V9.76604H35.5547V14.1757C35.5547 14.8067 35.6746 15.2553 35.9213 15.5147C36.1611 15.7741 36.5065 15.9073 36.9436 15.9073C37.282 15.9073 37.557 15.8582 37.7826 15.7531C38.0082 15.6479 38.1915 15.5147 38.3255 15.3395C38.4665 15.1712 38.5652 14.9609 38.6286 14.7225C38.6921 14.4842 38.7203 14.2248 38.7203 13.9444V9.77305H40.3136V16.9589ZM43.028 14.6524C43.0773 15.1151 43.2536 15.4376 43.5567 15.6269C43.8669 15.8092 44.2336 15.9073 44.6636 15.9073C44.8117 15.9073 44.9809 15.8933 45.1712 15.8723C45.3616 15.8512 45.5449 15.8022 45.7071 15.7391C45.8763 15.676 46.0102 15.5778 46.123 15.4516C46.2288 15.3254 46.2781 15.1642 46.2711 14.9609C46.264 14.7576 46.1865 14.5893 46.0455 14.4631C45.9045 14.3299 45.7282 14.2318 45.5096 14.1477C45.2911 14.0705 45.0443 14.0004 44.7623 13.9444C44.4803 13.8883 44.1983 13.8252 43.9092 13.7621C43.6131 13.699 43.3241 13.6149 43.0491 13.5237C42.7742 13.4326 42.5274 13.3064 42.3088 13.1451C42.0903 12.9909 41.914 12.7876 41.7871 12.5422C41.6532 12.2969 41.5897 11.9954 41.5897 11.6309C41.5897 11.2383 41.6884 10.9158 41.8788 10.6494C42.0691 10.383 42.3159 10.1727 42.605 10.0114C42.9011 9.85017 43.2254 9.738 43.5849 9.66789C43.9445 9.6048 44.29 9.56975 44.6143 9.56975C44.9879 9.56975 45.3475 9.61181 45.6859 9.68893C46.0243 9.76604 46.3345 9.89223 46.6095 10.0745C46.8844 10.2498 47.11 10.4811 47.2934 10.7615C47.4767 11.042 47.5895 11.3855 47.6388 11.7851H45.975C45.8974 11.4065 45.7282 11.1471 45.4532 11.0209C45.1783 10.8877 44.861 10.8246 44.5085 10.8246C44.3957 10.8246 44.2618 10.8317 44.1067 10.8527C43.9515 10.8737 43.8105 10.9088 43.6695 10.9578C43.5356 11.0069 43.4228 11.084 43.3241 11.1822C43.2324 11.2803 43.1831 11.4065 43.1831 11.5678C43.1831 11.7641 43.2536 11.9183 43.3875 12.0375C43.5215 12.1567 43.6977 12.2548 43.9163 12.3389C44.1349 12.416 44.3816 12.4861 44.6636 12.5422C44.9456 12.5983 45.2347 12.6614 45.5308 12.7245C45.8199 12.7876 46.1019 12.8717 46.3839 12.9629C46.6659 13.054 46.9126 13.1802 47.1312 13.3414C47.3498 13.5027 47.526 13.699 47.66 13.9373C47.7939 14.1757 47.8644 14.4772 47.8644 14.8277C47.8644 15.2553 47.7657 15.6129 47.5683 15.9143C47.3709 16.2088 47.1171 16.4541 46.8069 16.6364C46.4967 16.8187 46.1442 16.9589 45.7635 17.043C45.3827 17.1272 45.002 17.1692 44.6284 17.1692C44.1701 17.1692 43.7471 17.1201 43.3593 17.015C42.9716 16.9098 42.6332 16.7556 42.3511 16.5523C42.0691 16.342 41.8435 16.0826 41.6814 15.7741C41.5192 15.4656 41.4346 15.0941 41.4205 14.6664H43.028V14.6524ZM48.2874 9.76604H49.493V7.60678H51.0864V9.76604H52.5246V10.9508H51.0864V14.7926C51.0864 14.9609 51.0934 15.1011 51.1075 15.2273C51.1216 15.3465 51.1569 15.4516 51.2062 15.5358C51.2556 15.6199 51.3331 15.683 51.4389 15.725C51.5446 15.7671 51.6786 15.7881 51.8619 15.7881C51.9747 15.7881 52.0875 15.7881 52.2003 15.7811C52.3131 15.7741 52.4259 15.7601 52.5387 15.732V16.9589C52.3625 16.9799 52.1862 16.994 52.024 17.015C51.8548 17.036 51.6856 17.043 51.5094 17.043C51.0864 17.043 50.748 17.001 50.4941 16.9238C50.2403 16.8467 50.0359 16.7276 49.8949 16.5733C49.7468 16.4191 49.6552 16.2298 49.5988 15.9985C49.5494 15.7671 49.5142 15.5007 49.5071 15.2063V10.9649H48.3015V9.76604H48.2874ZM53.6527 9.76604H55.1614V10.7405H55.1896C55.4152 10.3199 55.7254 10.0254 56.1273 9.84316C56.5291 9.66088 56.9592 9.56974 57.4316 9.56974C58.0026 9.56974 58.4961 9.66789 58.9192 9.8712C59.3422 10.0675 59.6947 10.3409 59.9767 10.6914C60.2587 11.042 60.4632 11.4486 60.6042 11.9113C60.7452 12.374 60.8157 12.8717 60.8157 13.3975C60.8157 13.8813 60.7522 14.351 60.6253 14.7996C60.4984 15.2553 60.3081 15.6549 60.0542 16.0055C59.8004 16.356 59.4761 16.6294 59.0813 16.8397C58.6865 17.05 58.2282 17.1552 57.6924 17.1552C57.4598 17.1552 57.2271 17.1342 56.9944 17.0921C56.7618 17.05 56.5362 16.9799 56.3247 16.8888C56.1132 16.7977 55.9087 16.6785 55.7325 16.5313C55.5492 16.384 55.4011 16.2158 55.2742 16.0265H55.246V19.6159H53.6527V9.76604ZM59.2223 13.3695C59.2223 13.047 59.18 12.7315 59.0954 12.4231C59.0108 12.1146 58.8839 11.8482 58.7147 11.6098C58.5455 11.3715 58.334 11.1822 58.0872 11.042C57.8334 10.9018 57.5444 10.8246 57.2201 10.8246C56.5503 10.8246 56.0427 11.056 55.7043 11.5187C55.3659 11.9814 55.1966 12.5983 55.1966 13.3695C55.1966 13.734 55.2389 14.0705 55.3306 14.379C55.4223 14.6875 55.5492 14.9539 55.7325 15.1782C55.9087 15.4026 56.1202 15.5778 56.367 15.704C56.6137 15.8372 56.9028 15.9003 57.2271 15.9003C57.5937 15.9003 57.8969 15.8232 58.1507 15.676C58.4045 15.5287 58.609 15.3324 58.7711 15.1011C58.9333 14.8627 59.0531 14.5963 59.1236 14.2949C59.1871 13.9934 59.2223 13.685 59.2223 13.3695ZM62.0354 7.0249H63.6287V8.52517H62.0354V7.0249ZM62.0354 9.76604H63.6287V16.9589H62.0354V9.76604ZM65.0529 7.0249H66.6462V16.9589H65.0529V7.0249ZM71.532 17.1552C70.9539 17.1552 70.4392 17.057 69.988 16.8678C69.5368 16.6785 69.1561 16.4121 68.8388 16.0826C68.5286 15.7461 68.2889 15.3465 68.1267 14.8838C67.9646 14.4211 67.88 13.9093 67.88 13.3555C67.88 12.8086 67.9646 12.3039 68.1267 11.8412C68.2889 11.3785 68.5286 10.9789 68.8388 10.6424C69.149 10.3059 69.5368 10.0465 69.988 9.85718C70.4392 9.66789 70.9539 9.56975 71.532 9.56975C72.1101 9.56975 72.6248 9.66789 73.076 9.85718C73.5272 10.0465 73.9079 10.3129 74.2252 10.6424C74.5354 10.9789 74.7751 11.3785 74.9373 11.8412C75.0994 12.3039 75.184 12.8086 75.184 13.3555C75.184 13.9093 75.0994 14.4211 74.9373 14.8838C74.7751 15.3465 74.5354 15.7461 74.2252 16.0826C73.915 16.4191 73.5272 16.6785 73.076 16.8678C72.6248 17.057 72.1101 17.1552 71.532 17.1552ZM71.532 15.9003C71.8845 15.9003 72.1947 15.8232 72.4556 15.676C72.7164 15.5287 72.9279 15.3324 73.0972 15.0941C73.2664 14.8557 73.3862 14.5823 73.4708 14.2809C73.5484 13.9794 73.5907 13.6709 73.5907 13.3555C73.5907 13.047 73.5484 12.7455 73.4708 12.4371C73.3933 12.1286 73.2664 11.8622 73.0972 11.6238C72.928 11.3855 72.7164 11.1962 72.4556 11.049C72.1947 10.9018 71.8845 10.8246 71.532 10.8246C71.1795 10.8246 70.8693 10.9018 70.6084 11.049C70.3476 11.1962 70.1361 11.3925 69.9669 11.6238C69.7976 11.8622 69.6778 12.1286 69.5932 12.4371C69.5156 12.7455 69.4733 13.047 69.4733 13.3555C69.4733 13.6709 69.5156 13.9794 69.5932 14.2809C69.6707 14.5823 69.7976 14.8557 69.9669 15.0941C70.1361 15.3324 70.3476 15.5287 70.6084 15.676C70.8693 15.8302 71.1795 15.9003 71.532 15.9003ZM75.6493 9.76604H76.8549V7.60678H78.4483V9.76604H79.8865V10.9508H78.4483V14.7926C78.4483 14.9609 78.4553 15.1011 78.4694 15.2273C78.4835 15.3465 78.5188 15.4516 78.5681 15.5358C78.6175 15.6199 78.695 15.683 78.8008 15.725C78.9065 15.7671 79.0405 15.7881 79.2238 15.7881C79.3366 15.7881 79.4494 15.7881 79.5622 15.7811C79.675 15.7741 79.7878 15.7601 79.9006 15.732V16.9589C79.7244 16.9799 79.5481 16.994 79.386 17.015C79.2168 17.036 79.0475 17.043 78.8713 17.043C78.4483 17.043 78.1099 17.001 77.856 16.9238C77.6022 16.8467 77.3978 16.7276 77.2568 16.5733C77.1087 16.4191 77.0171 16.2298 76.9607 15.9985C76.9113 15.7671 76.8761 15.5007 76.869 15.2063V10.9649H75.6634V9.76604L75.6493 9.76604Z" fill="#191919"/>
<path d="M19.1489 7.02474H11.8449L9.58879 0.112305L7.32566 7.02474L0.021637 7.01773L5.93677 11.2942L3.67365 18.1996L9.58879 13.9302L15.4969 18.1996L13.2408 11.2942L19.1489 7.02474Z" fill="#00B67A"/>
<path d="M13.7484 12.8576L13.2408 11.2942L9.58878 13.9302L13.7484 12.8576Z" fill="#005128"/>
</svg>