<svg id="Layer_1" data-name="Layer 1" xmlns="http://www.w3.org/2000/svg" viewBox="0 0 539.89 200"><defs><style>.cls-1{fill:#174a7c;}.cls-2{fill:#56a0d3;}</style></defs><path class="cls-1" d="M72.8,82.36v33.3H66.62v-4.28A10.77,10.77,0,0,1,64,115.15a5.47,5.47,0,0,1-3.47,1q-4.15,0-6.09-4.25T52.49,98.62q0-8.66,1.93-12.72a6.39,6.39,0,0,1,6.09-4.07q3.8,0,6.11,4.29V82.36ZM58.85,98.86q0,6.57.88,9.17c.61,1.74,1.67,2.61,3.19,2.61s2.4-.9,3-2.7a31,31,0,0,0,1-8.92,31,31,0,0,0-1-8.94c-.62-1.8-1.63-2.7-3-2.7s-2.53.86-3.16,2.57S58.85,94.51,58.85,98.86Z"/><path class="cls-1" d="M79.71,61h6.15V86.14a13.13,13.13,0,0,1,1.32-2.06A6.8,6.8,0,0,1,88.5,82.8a5.44,5.44,0,0,1,3.36-1,6.76,6.76,0,0,1,3.68,1,7.17,7.17,0,0,1,2.53,3,18.67,18.67,0,0,1,1.47,5.25,51.4,51.4,0,0,1,.48,7.55q0,9.07-1.93,13.31t-6,4.23a5.53,5.53,0,0,1-3.51-1,10.77,10.77,0,0,1-2.64-3.77v4.28H79.71Zm14,38.2c0-4.53-.31-7.6-.91-9.2s-1.64-2.61-3.15-2.61-2.43.88-3,2.64-.87,4.74-.87,9,.29,7.25.87,9,1.59,2.61,3,2.61,2.52-.86,3.15-2.58S93.67,103.52,93.67,99.19Z"/><path class="cls-1" d="M105.7,82.36h6.18v4.12q2.53-4.65,6.75-4.65c3.06,0,5.13,1.55,6.23,4.67,1.63-3.12,3.94-4.67,6.94-4.67a7.27,7.27,0,0,1,5.35,1.85A7.39,7.39,0,0,1,139,89.13v26.53h-6.27V93.76c0-2.51-.23-4.19-.7-5.05a2.66,2.66,0,0,0-2.61-1.32,3.18,3.18,0,0,0-3,1.36c-.51.88-.76,2.55-.76,5v21.9H119.3V93.76a21,21,0,0,0-.18-3,5.68,5.68,0,0,0-.59-2,2.63,2.63,0,0,0-1.09-1.08,3.71,3.71,0,0,0-1.66-.34,3.25,3.25,0,0,0-3,1.45,9.87,9.87,0,0,0-.9,4.92v21.9H105.7Z"/><path class="cls-1" d="M145.89,134.55V82.36H152v4.31a10.44,10.44,0,0,1,2.63-3.79,5.59,5.59,0,0,1,3.53-1q4.11,0,6,4.26t1.91,13.34q0,8.88-2,12.77a6.43,6.43,0,0,1-6.17,4,5.66,5.66,0,0,1-3.36-.94,6,6,0,0,1-1.28-1.28,15,15,0,0,1-1.28-2v22.61Zm13.86-35.36c0-4.52-.3-7.59-.9-9.19s-1.62-2.61-3.12-2.61-2.42.9-3,2.71-.91,4.64-.91,8.93.3,7.26.91,8.93,1.63,2.66,3,2.66,2.5-.85,3.12-2.57S159.75,103.51,159.75,99.19Z"/><path class="cls-2" d="M19.83,155.41c-.22-2-2.62-3.7-2.19-5.11C28.48,169.8,46.31,185,69.5,193.39A110.73,110.73,0,0,0,109.67,200c14.14-.36,27.62-3.71,38-9.49v-.73a131.31,131.31,0,0,1-15.7,4.38A134.59,134.59,0,0,1,113.69,196a126.35,126.35,0,0,1-19.36,0A87.86,87.86,0,0,1,77.9,192.3c-2.52-.76-4.87-1.57-7.31-2.56s-5-1.77-7.3-2.92a124,124,0,0,1-11-6.58c-.57-.36-.93-.73-1.46-1.09-8.15-5.63-15.82-12-21.18-19-.7-.92-1.42-1.9-1.83-2.56-.21-.34-.12-.72-.36-1.09-.34-.53-1.15-.94-1.46-1.46-.63-1.07-1.1-2.3-1.46-2.92-.63-1.1-1-2-1.46-2.93-1.49-2.72-2.84-5.29-4-8-1.27-3-2-5.94-2.92-8.77-.45-1.37-1.76-2.8-1.1-4.38A93.11,93.11,0,0,0,45,174.4a83,83,0,0,0,24.1,14.24,91,91,0,0,0,32.14,6.21,89.36,89.36,0,0,0,34.33-7.3c1-.42,1.63-1,2.55-1.46.51-.25,1.32-.09,1.83-.37s.58-.83,1.1-1.09c1.88-1,3.72-1.85,5.47-2.92a71.38,71.38,0,0,0,9.5-6.94,77.47,77.47,0,0,0,21.18-29.22c.68-1.67,2.5-3.87,1.09-5.84-2.52.3-2.44,3-3.28,4.38a14,14,0,0,1-1.83,2.19c-.27.3-.12.75-.36,1.1-.12.16-.6.18-.73.36s-.16.82-.37,1.1c-.75,1-1.78,1.94-2.56,2.92a133.42,133.42,0,0,1-9.85,11.32,86.86,86.86,0,0,1-18.26,13.51c-2.47,1.37-4.84,3-7.31,3.65-2.7.76-6.75.95-10.22,1.1-3.08.13-6.14.12-9.13,0,24-3.84,40.55-18.14,48.57-38a51.5,51.5,0,0,0,2.55-7.3c.33-1.46,1.25-3.58-.36-4.75-2,.39-2,2.8-2.56,4a52.73,52.73,0,0,1-2.92,5.11c-1.22,1.88-2.18,3.61-3.29,5.11-11.26,15.24-30.65,28.55-55.87,28.49a75.25,75.25,0,0,1-26.66-5.48c-1.7-.67-2.77-1.24-4-1.83A66.05,66.05,0,0,1,48,150.66c-.56-.63-1.31-1.19-1.83-1.82-.71-.88-1.31-2.39-1.82-2.92-.29-.31-.44-.79-.73-1.1-1.62-1.69-2.26-3.6-3.29-5.48a71.83,71.83,0,0,1-4.75-10.59c-.33-.94-.79-1.91-1.09-2.92-.89-2.94-1.2-6.51-2.92-8-1.28-.32-1-.87-1.46-1.83-1.21-2.69-1.34-8-1.83-11.32a39.91,39.91,0,0,1-.73-4,18.1,18.1,0,0,1,.73-2.55c.22-1.06.13-2.32.37-3.29a60.41,60.41,0,0,1,6.2-15.34,65.76,65.76,0,0,0,1.83,48.21,59.91,59.91,0,0,0,7.67,12.41c1,1.3,1.87,2.88,2.92,4s2.21,2.3,3.29,3.29c.3.27.74.12,1.09.36s.44.85.73,1.1c1,.82,2.32,1.62,2.92,2.19a18.61,18.61,0,0,0,2.93,2.19,52.86,52.86,0,0,0,34.69,9.13,35,35,0,0,0,4.75-1.09c1.48-.36,3.9,0,4.38-1.83-1.15-.94-2.65-.46-3.65-.37-1.58.16-2.88.64-4.38.73a45.68,45.68,0,0,1-5.85,0,51.55,51.55,0,0,1-20.81-6.21,56.45,56.45,0,0,1-8.4-5.11c-12.5-9.74-21.92-27.41-21.92-46a34.83,34.83,0,0,1,.37-6.58c.29-1.34,1.74-3.3,2.19-4.38.21-.51.15-1.36.37-1.82.91-2,2.33-4,3.28-5.85,1-2.07,1.85-4.32,2.92-6.2.54-.94,1.28-1.7,1.83-2.56,4.39-6.86,8.74-12.44,14.61-17.17,1.54-1.24,4.13-2.56,4-5.11-1.12-2.2-4.26.82-4.75.37,3.24-2.76,7.71-4.31,11.68-5.48.92-.27,1.72-.48,2.56-.73.23-.07.88-.21,1.46-.37a6.94,6.94,0,0,0,4-2.19c.25-.25.11-.83.36-1.09a9.2,9.2,0,0,1,1.46-.37c1.83-.88,4.77-1,7.31-1.46a81,81,0,0,1,8-1.09A72.5,72.5,0,0,1,132.31,47c2.05.95,4.05,2.29,5.84,3.29s3.1,1.75,4.39,2.55c1.11.7,1.78,1.26,2.55,1.83.41.3,1.08.45,1.46.73.82.6,1.42,1.56,2.19,2.19.42.34,1,.39,1.47.73s.67,1.09,1.09,1.46c.78.68,1.81,1.14,2.56,1.83s1.4,1.71,2.19,2.55a82.06,82.06,0,0,1,11.68,15.34c1.08,1.91,1.93,4.23,2.93,6.21s1.79,4.4,4.38,4.75c3.1-3.27.54-7.87-.73-11a76.19,76.19,0,0,0-3.65-7.3,28.58,28.58,0,0,0-1.47-2.92c-.29-.31-.43-.79-.72-1.1s-.12-.37-.37-.73c-.43-.61-1.36-1.19-1.83-1.83-.11-.15.08-.55,0-.73s-.64-.23-.73-.36a53.94,53.94,0,0,0-5.84-6.94,19.52,19.52,0,0,0-4.38-3.65c-.1,0-.26-.64-.37-.73a18.55,18.55,0,0,0-3.65-2.56c-.11-.05-.24-.64-.36-.73a92.39,92.39,0,0,0-19-10.23,85.29,85.29,0,0,0-29.22-5.84,74.14,74.14,0,0,0-35.42,8.4c-6.37,3.27-11.72,7.88-16.8,12.42-2.65,2.36-5.23,4.54-7.67,6.94-1.62,1.58-3.18,3.3-4.39,4.74-.7.85-2.18,3-2.55,2.56,2.48-3.28,4.63-7,7.3-10.23,1.31-1.56,2.84-2.83,4.38-4.38S50.44,50.84,52,49.5c.37-.32,1-.32,1.46-.73,1.27-1.11,2.31-1.93,3.65-2.92,4.76-3.49,10.13-7.33,16.07-9.13.13,0,.55-.65.73-.73a95.89,95.89,0,0,1,28.85-6.57,99.34,99.34,0,0,1,33.6,3.29c.51.15,1.27.2,1.82.36a96.24,96.24,0,0,1,24.47,11,89.09,89.09,0,0,1,9.86,7.67c.87.74,1.86,1.19,2.56,1.82,1.57,1.43,2.94,3.19,4.38,4.75a88,88,0,0,1,19.72,33.6c.91,2.85,1.61,6,2.19,8.76.13.62.2,1.24.37,1.83.23.85.48,2.73,1.82,2.92,1.79-3.41-.12-8.47-.73-11-.65-2.71-1.15-4.58-1.82-6.57a85.36,85.36,0,0,0-26.3-38.35c-11.79-10-25.89-17.25-43.09-21.54A100.53,100.53,0,0,0,113,24.67c-26.83-1.49-50.37,7.84-65.38,21.91a106.32,106.32,0,0,0-9.13,9.5c-.48.6-1.06.94-1.46,1.46s-.37,1.31-.72,1.83-1.12,1-1.47,1.46c-1.13,1.65-2,3.58-2.92,5.11-.44.74-.73,1.15-1.09,1.82a71.36,71.36,0,0,0-7.31,20.09,77.44,77.44,0,0,0-1.09,9.86c-.26,3.31,0,6.41,0,10.23,0,1.58-.38,3.16-.37,4.74a71.15,71.15,0,0,0,2.19,16.07,13.64,13.64,0,0,1,.73,4.75,89.5,89.5,0,0,1-5.11-38A85.38,85.38,0,0,1,26.4,69.23,83.21,83.21,0,0,1,59.27,30.88c1.18-.73,2.4-1.13,3.65-1.83s2.08-1.6,3.29-2.19c.29-.14.79.1,1.1,0,.13,0,.55-.65.73-.73a22.47,22.47,0,0,0,3.65-1.82c1.81-1.19,3.83-2.44,4-4.75-4.34-3-9.35.26-12.06,1.46-1.46.65-2.91.89-4,1.46-.48.25-.9.78-1.46,1.1-2,1.11-3.54,1.91-5.12,2.92A93.52,93.52,0,0,0,38.45,38.18c-.41.41-1.08.66-1.46,1.1s-.62,1.3-1.09,1.82c-1.72,1.92-3.56,3.53-5.11,5.48-.83,1-1.43,2.22-2.19,3.29-.91,1.27-2.28,2.79-2.93,3.65-.21.29-.2.84-.36,1.1a91.87,91.87,0,0,0-12,67.19c-.75-.47-.89-2.65-2.19-1.46-.66,5.15,1.78,11.21,2.92,15,.55,1.84,1,3.29,1.46,4.38a10.17,10.17,0,0,1,1.09,4c-1.9-1.86-2.28-4.61-3.28-7.31-.46-1.23-1-2.31-1.46-3.65a89.22,89.22,0,0,1-4.39-22.64A106.73,106.73,0,0,1,9.61,82c1.08-4.91,3.05-9.21,3.65-13.51C11.22,69.4,10.61,72,10,74A88.51,88.51,0,0,0,5.59,96.62a95.85,95.85,0,0,0,4,34.69c2.07,6.66,5,12.57,7.3,17.89-.37,0-.44-.29-.73-.36a14.83,14.83,0,0,0-1.46-3.29c-1.52-3.26-3.25-6.89-4.38-9.86-.24-.62-.12-1.16-.37-1.82-.35-.94-1.15-2-1.46-2.93s-.44-2.28-.73-3.28a102,102,0,0,1-4-34A81.64,81.64,0,0,1,8.51,71.42c2.42-6.73,5.89-12.53,8.76-18.26l-.36-.73A73.32,73.32,0,0,0,6.68,71.05,75.68,75.68,0,0,0,1.21,94.42c-.86,15.45,2.46,27.15,6.57,38.35a121.8,121.8,0,0,0,5.11,12.42c1,1.95,2.27,3.69,3.29,5.47s1.71,4.05,3.28,5.48"/><path class="cls-2" d="M9,71.43c.05-5.64-10.16,13.15-8.89,8A103.35,103.35,0,0,1,4.49,65.21a99.66,99.66,0,0,1,8.4-16.07c1.3-2.06,2.75-4.07,4.38-6.21.22-.28.13-.78.37-1.09s.86-.43,1.1-.74c.52-.67,1.09-1.66,1.82-2.55a88.75,88.75,0,0,1,10.59-11c.54-.45,1-1,1.46-1.46,1.17-1,2.49-1.65,3.66-2.55s2.16-2.13,3.28-2.93c.35-.24.78-.12,1.1-.36C50.33,12.89,63.14,7,77.17,3.49c7-1.73,15-2.37,22.64-3.29A67,67,0,0,1,110,.2a128.9,128.9,0,0,1,47.48,11.69c1.63.75,3.84,1.23,5.11,2.56.18.18.82.72.37,1.09-2.4-.29-4.47-1.71-6.58-2.55s-4.38-1.38-6.57-2.2c-.92-.34-2-1.14-2.92-1.46-3-1-6.58-1.94-10.23-2.92C124.56,3.17,109,1.05,93.6,2.76A121.92,121.92,0,0,0,75,6.41c-2.82.77-6.27,1.77-9.5,2.92a108.93,108.93,0,0,0-15,6.94c-1,.55-1.75,1.15-2.93,1.83a98.57,98.57,0,0,0-8.39,5.48c-1.75,1.28-3.32,2.86-5.12,4.38-.24.21-.5.56-.73.73s-.84.14-1.09.36c-2.25,2-4.05,4.42-6.21,6.58-1.36,1.35-2.68,2.58-4,4-.54.59-1.07,1.63-1.82,2.56A99.73,99.73,0,0,0,10,57.17c-6.07,11.14,1.53-.11-.24,14.26"/><path class="cls-2" d="M43.93,97.71c.78,3.86-.23,7,0,11.69a53.43,53.43,0,0,0,3.29,16.07A42.89,42.89,0,0,0,50.51,132c.32.55.38,1.29.73,1.83.51.78,1.46,1.53,2.19,2.55a35.74,35.74,0,0,0,7.67,7.67c.62.44,1.43.62,2.19,1.1s1.19,1.1,1.82,1.46c1,.55,3.69.46,3.29,2.55-2.21.12-4.07-1.51-5.84-2.55-.52-.31-1.36-.42-1.83-.73-.95-.64-1.82-1.67-2.92-2.56s-2.8-1.8-3.65-2.92c-.2-.26-.14-.82-.37-1.1-1-1.19-2.54-2.46-3.65-4a49.44,49.44,0,0,1-7.67-36.52c-.1-.6.35-.63.37-1.1Z"/><path class="cls-2" d="M137.62,193.24a60.23,60.23,0,0,0,23.64-13.47S178,165.71,187.6,145.66c0,0,2.09-3.59,3-14.07,0,0,.9-13.17-1.8-25.13,0,0,1.2-.6,2.1,5.68,0,0,1.2,12.87.9,17.06a48.8,48.8,0,0,1-10.48,29.62s-15.56,23.64-38.6,34.12L137,195.33Z"/><path class="cls-1" d="M226.5,56.78l7,32.7h-4.38l-1.21-6.37h-6.5l-1.22,6.37H216l7.11-32.7ZM226.41,75l-1.65-11.89h-.08l-2.6,16.61h5.2Z"/><path class="cls-1" d="M243.89,72.05a5,5,0,0,0-3-1.17c-1.52,0-2.78.86-2.78,2.34.09,3.68,6.86,3.86,6.86,10.1,0,3.86-2.39,6.51-6.29,6.51a6.18,6.18,0,0,1-3.56-1v-4a5.17,5.17,0,0,0,3.38,1.38,2.52,2.52,0,0,0,2.74-2.77c0-3.86-6.85-4.12-6.85-10.19a5.68,5.68,0,0,1,5.85-6,6.77,6.77,0,0,1,3.69,1Z"/><path class="cls-1" d="M255.85,72.05a5,5,0,0,0-3-1.17c-1.52,0-2.78.86-2.78,2.34.09,3.68,6.85,3.86,6.85,10.1,0,3.86-2.38,6.51-6.29,6.51a6.13,6.13,0,0,1-3.55-1v-4a5.15,5.15,0,0,0,3.38,1.38,2.51,2.51,0,0,0,2.73-2.77c0-3.86-6.85-4.12-6.85-10.19a5.69,5.69,0,0,1,5.86-6,6.74,6.74,0,0,1,3.68,1Z"/><path class="cls-1" d="M258.93,78.6c0-4.77.65-11.37,6.89-11.37s6.9,6.6,6.9,11.37c0,4.59-.65,11.23-6.9,11.23S258.93,83.19,258.93,78.6Zm9.63,0c0-1.74.39-7.64-2.74-7.64s-2.73,5.9-2.73,7.64c0,1.56-.39,7.5,2.73,7.5S268.56,80.16,268.56,78.6Z"/><path class="cls-1" d="M285,72.09h-.09a2.2,2.2,0,0,0-1.91-1c-3.51,0-3.6,4.94-3.6,7.29s.09,7.67,3.51,7.67a3.23,3.23,0,0,0,2.09-.82V89a6.25,6.25,0,0,1-3.3.87c-5.77,0-6.46-6.77-6.46-11.1,0-4.51.52-11.5,6.5-11.5A7.05,7.05,0,0,1,285,68Z"/><path class="cls-1" d="M287.2,61a2.71,2.71,0,0,1,5.42,0,2.71,2.71,0,1,1-5.42,0Zm4.73,28.53h-4.08V67.58h4.08Z"/><path class="cls-1" d="M304.33,86.66h-.09c-.82,1.91-1.69,3.17-4,3.17-5.08,0-5.16-8-5.16-11.58s.13-11,5.29-11a4.23,4.23,0,0,1,3.9,2.78h.09V67.58h4.07v21.9h-4.07Zm.13-8.15c0-1.74.17-7.63-2.56-7.63-3,0-2.69,5.85-2.69,7.63s-.35,7.67,2.69,7.67C304.63,86.18,304.46,80.24,304.46,78.51Z"/><path class="cls-1" d="M317.07,61.38v6.2h2.17v3.21h-2.17V89.48H313V70.79h-2.21V67.58H313v-6.2Z"/><path class="cls-1" d="M325.27,79.33c0,1.82-.09,6.85,2.56,6.85,2.16,0,2.55-2.38,2.55-4.07h3.78c0,4-1.78,7.72-6.38,7.72-6.11,0-6.67-6.51-6.67-11.15,0-4.46.52-11.45,6.54-11.45s6.64,6.94,6.64,11.45v.65Zm4.85-2.9c0-1.69,0-5.55-2.47-5.55s-2.38,3.86-2.38,5.55Z"/><path class="cls-1" d="M346,86.66H346c-.82,1.91-1.73,3.17-4,3.17-5.08,0-5.16-8-5.16-11.58s.13-11,5.29-11c2.08,0,3.08,1.13,3.9,2.78H346V53.49h4.07v36H346Zm.13-8.15c0-1.74.17-7.63-2.56-7.63-3,0-2.69,5.85-2.69,7.63s-.35,7.67,2.69,7.67C346.34,86.18,346.17,80.24,346.17,78.51Z"/><path class="cls-1" d="M363.51,89.48V56.78h5.42c5.9,0,7.55,3.26,7.55,8.76,0,3.21-.66,6.33-4.12,7.25v.08c3.73,1.17,4.59,4,4.59,7.68,0,6-2.21,8.93-8.24,8.93Zm4.86-29h-.74V71.18c4,.17,4.6-2.34,4.6-5.81C372.23,62.81,371.36,60.43,368.37,60.47Zm-.74,25.32c3.77.18,4.73-1.77,4.73-5.37s-.74-5.86-4.73-5.77Z"/><path class="cls-1" d="M380.25,78.6c0-4.77.65-11.37,6.89-11.37s6.9,6.6,6.9,11.37c0,4.59-.65,11.23-6.9,11.23S380.25,83.19,380.25,78.6Zm9.62,0c0-1.74.39-7.64-2.73-7.64s-2.73,5.9-2.73,7.64c0,1.56-.39,7.5,2.73,7.5S389.87,80.16,389.87,78.6Z"/><path class="cls-1" d="M405.79,86.66h-.09c-.82,1.91-1.74,3.17-4,3.17-5.08,0-5.16-8-5.16-11.58s.13-11,5.29-11c2.08,0,3.08,1.13,3.9,2.78h.09V53.49h4.07v36h-4.07Zm.13-8.15c0-1.74.17-7.63-2.56-7.63-3,0-2.69,5.85-2.69,7.63s-.35,7.67,2.69,7.67C406.09,86.18,405.92,80.24,405.92,78.51Z"/><path class="cls-1" d="M416.45,67.58l3.21,15.27h.09l3.68-15.27h4.12l-8.93,30.88h-4.29l3.38-10.76L411.9,67.58Z"/><path class="cls-1" d="M432.06,67.58l2.34,15.27v.43h.09l.95-6.81,1.69-8.89H440l2.47,15.27v.43h.09l1.12-8.15,1.44-7.55h4L444,89.48h-2.77L439,78.25l-.44-4.86h-.08l-1,7.85-1.6,8.24H433.1l-5.33-21.9Z"/><path class="cls-1" d="M450.27,78.6c0-4.77.65-11.37,6.9-11.37s6.89,6.6,6.89,11.37c0,4.59-.65,11.23-6.89,11.23S450.27,83.19,450.27,78.6Zm9.63,0c0-1.74.39-7.64-2.73-7.64s-2.74,5.9-2.74,7.64c0,1.56-.39,7.5,2.74,7.5S459.9,80.16,459.9,78.6Z"/><path class="cls-1" d="M471.26,70.27h.08a4.88,4.88,0,0,1,4.64-3v4l-.69,0c-3,0-4,1.7-4,4.47V89.48h-4.12V67.58h4.08Z"/><path class="cls-1" d="M482.92,53.49v23.8H483l5.07-9.71h4.55L487,77.29l6.33,12.19h-4.72L483,77.86h-.09V89.48h-4.07v-36Z"/><path class="cls-1" d="M229.84,133.65a6.9,6.9,0,0,1-5.64,3c-4.21,0-7.33-3.91-7.33-8.16,0-3.51,2.17-6.37,4.56-8.76a14.7,14.7,0,0,1-2.61-7.67,6,6,0,0,1,6.25-6.25c3.64,0,6.24,2.13,6.24,5.9,0,3.6-2.47,6.29-4.85,8.63l4.29,7.11,2.69-3.81,2.77,2.25-3.47,4.86,3.47,5.46H231.4Zm-6.33-10.53c-1.48,1.56-2.47,3-2.47,5.2s1.43,4.6,3.68,4.6a3.9,3.9,0,0,0,3.3-2.26Zm4.25-11.41a2.34,2.34,0,0,0-2.39-2.6,2.81,2.81,0,0,0-2.56,2.86c0,1.87,1,3.51,1.82,5.12C226.11,115.57,227.76,114,227.76,111.71Z"/><path class="cls-1" d="M253.55,103.52l4.64,23.59h.09l.13-1.35,1.3-7.85,2.82-14.39h3.82l3,32.69h-4.25L264.35,124l-.26-6.07-.09-4.3h-.08l-.74,4.69-3.38,17.86h-3l-4.21-22.55h-.09l-1.25,22.55h-4.12l2.68-32.69Z"/><path class="cls-1" d="M281,133.39h-.09c-.82,1.91-1.69,3.17-4,3.17-5.08,0-5.16-8-5.16-11.58s.13-11,5.29-11a4.22,4.22,0,0,1,3.9,2.77H281v-2.43H285v21.9H281Zm.13-8.15c0-1.73.17-7.63-2.56-7.63-3,0-2.69,5.85-2.69,7.63s-.35,7.68,2.69,7.68C281.26,132.92,281.09,127,281.09,125.24Z"/><path class="cls-1" d="M297,118.78a5,5,0,0,0-3-1.17c-1.52,0-2.78.87-2.78,2.34.09,3.69,6.85,3.86,6.85,10.1,0,3.86-2.38,6.51-6.28,6.51a6.08,6.08,0,0,1-3.56-1v-4a5.18,5.18,0,0,0,3.38,1.39,2.52,2.52,0,0,0,2.73-2.78c0-3.86-6.85-4.12-6.85-10.19a5.68,5.68,0,0,1,5.86-6,6.79,6.79,0,0,1,3.68,1Z"/><path class="cls-1" d="M309,118.78a5,5,0,0,0-3-1.17c-1.51,0-2.77.87-2.77,2.34.09,3.69,6.85,3.86,6.85,10.1,0,3.86-2.38,6.51-6.29,6.51a6.05,6.05,0,0,1-3.55-1v-4a5.16,5.16,0,0,0,3.38,1.39,2.52,2.52,0,0,0,2.73-2.78c0-3.86-6.85-4.12-6.85-10.19a5.68,5.68,0,0,1,5.85-6,6.83,6.83,0,0,1,3.69,1Z"/><path class="cls-1" d="M321.37,133.39h-.09c-.82,1.91-1.69,3.17-4,3.17-5.08,0-5.16-8-5.16-11.58s.13-11,5.29-11a4.22,4.22,0,0,1,3.9,2.77h.09v-2.43h4.07v21.9h-4.07Zm.13-8.15c0-1.73.17-7.63-2.56-7.63-3,0-2.69,5.85-2.69,7.63s-.35,7.68,2.69,7.68C321.67,132.92,321.5,127,321.5,125.24Z"/><path class="cls-1" d="M342,136.39c0,7.8-2.35,9.15-6.68,9.15-3.95,0-6.46-2.26-6.46-6.34v-.6h3.94c-.08,1.56.57,3.29,2.6,3.29,2.74,0,2.48-2.64,2.48-4.64v-3.64h-.09a3.83,3.83,0,0,1-3.9,2.95c-5.21,0-5.34-7.42-5.34-11.15,0-3.51-.08-11.44,5.25-11.44,2.17,0,3.12,1.21,4,3l.09-.09v-2.52H342Zm-6.73-18.78c-2.81,0-2.55,6-2.55,7.54s-.26,7.77,2.68,7.77,2.52-5.77,2.52-7.55S337.93,117.61,335.28,117.61Z"/><path class="cls-1" d="M349.29,126.06c0,1.83-.09,6.86,2.56,6.86,2.17,0,2.56-2.39,2.56-4.08h3.77c0,4-1.78,7.72-6.38,7.72-6.11,0-6.67-6.51-6.67-11.15,0-4.46.52-11.44,6.54-11.44s6.64,6.93,6.64,11.44v.65Zm4.86-2.9c0-1.69,0-5.55-2.48-5.55s-2.38,3.86-2.38,5.55Z"/><path class="cls-1" d="M371.05,136.21V103.52h5.21c3.73,0,8.5.34,8.5,8.76,0,6.63-2.6,9.71-9.37,9.45v14.48Zm4.34-29V118c3.73.26,4.77-1.78,4.77-5.42,0-3-.87-5.42-4.16-5.42Z"/><path class="cls-1" d="M391.22,117h.08a4.87,4.87,0,0,1,4.64-3v4l-.69,0c-3,0-4,1.69-4,4.46v13.79h-4.12v-21.9h4.08Z"/><path class="cls-1" d="M398.15,125.33c0-4.77.65-11.36,6.9-11.36s6.89,6.59,6.89,11.36c0,4.59-.65,11.23-6.89,11.23S398.15,129.92,398.15,125.33Zm9.63,0c0-1.74.39-7.63-2.73-7.63s-2.73,5.89-2.73,7.63c0,1.56-.39,7.5,2.73,7.5S407.78,126.89,407.78,125.33Z"/><path class="cls-1" d="M416.1,114.31v-7.06c0-3.73.31-7.38,4.95-7.38a6.45,6.45,0,0,1,2.73.61v4.25a3.39,3.39,0,0,0-1.69-.52c-2.08,0-1.91,2-1.91,3.51v6.59h3.38v3.21h-3.38v18.69H416.1V117.52h-2v-3.21Z"/><path class="cls-1" d="M429.37,126.06c0,1.83-.08,6.86,2.56,6.86,2.17,0,2.56-2.39,2.56-4.08h3.77c0,4-1.78,7.72-6.37,7.72-6.12,0-6.68-6.51-6.68-11.15,0-4.46.52-11.44,6.55-11.44s6.63,6.93,6.63,11.44v.65Zm4.86-2.9c0-1.69,0-5.55-2.47-5.55s-2.39,3.86-2.39,5.55Z"/><path class="cls-1" d="M449.75,118.78a5,5,0,0,0-3-1.17c-1.52,0-2.78.87-2.78,2.34.09,3.69,6.85,3.86,6.85,10.1,0,3.86-2.38,6.51-6.29,6.51a6.05,6.05,0,0,1-3.55-1v-4a5.16,5.16,0,0,0,3.38,1.39,2.52,2.52,0,0,0,2.73-2.78c0-3.86-6.85-4.12-6.85-10.19a5.68,5.68,0,0,1,5.86-6,6.82,6.82,0,0,1,3.68,1Z"/><path class="cls-1" d="M461.72,118.78a5,5,0,0,0-3-1.17c-1.51,0-2.77.87-2.77,2.34.08,3.69,6.85,3.86,6.85,10.1,0,3.86-2.39,6.51-6.29,6.51a6.05,6.05,0,0,1-3.55-1v-4a5.16,5.16,0,0,0,3.38,1.39,2.52,2.52,0,0,0,2.73-2.78c0-3.86-6.85-4.12-6.85-10.19a5.67,5.67,0,0,1,5.85-6,6.83,6.83,0,0,1,3.69,1Z"/><path class="cls-1" d="M464.75,107.68a2.71,2.71,0,1,1,2.73,2.73A2.71,2.71,0,0,1,464.75,107.68Zm4.73,28.53H465.4v-21.9h4.08Z"/><path class="cls-1" d="M472.6,125.33c0-4.77.65-11.36,6.89-11.36s6.9,6.59,6.9,11.36c0,4.59-.65,11.23-6.9,11.23S472.6,129.92,472.6,125.33Zm9.63,0c0-1.74.39-7.63-2.74-7.63s-2.73,5.89-2.73,7.63c0,1.56-.39,7.5,2.73,7.5S482.23,126.89,482.23,125.33Z"/><path class="cls-1" d="M493.59,116.83h.08A4.66,4.66,0,0,1,498.1,114c4.33,0,4.46,3.86,4.46,7.19v15.05h-4.07V121.08c0-1.52-.26-3.47-2.43-3.47-2.69,0-2.47,3.08-2.47,4.94v13.66h-4.08v-21.9h4.08Z"/><path class="cls-1" d="M515,133.39h-.08c-.83,1.91-1.7,3.17-4,3.17-5.07,0-5.16-8-5.16-11.58s.13-11,5.29-11a4.23,4.23,0,0,1,3.91,2.77H515v-2.43H519v21.9H515Zm.13-8.15c0-1.73.18-7.63-2.56-7.63-3,0-2.68,5.85-2.68,7.63s-.35,7.68,2.68,7.68C515.27,132.92,515.09,127,515.09,125.24Z"/><path class="cls-1" d="M526.84,136.21h-4.07v-36h4.07Z"/><path class="cls-1" d="M538.85,118.78a5,5,0,0,0-3-1.17c-1.52,0-2.78.87-2.78,2.34.09,3.69,6.85,3.86,6.85,10.1,0,3.86-2.38,6.51-6.28,6.51a6.08,6.08,0,0,1-3.56-1v-4a5.18,5.18,0,0,0,3.38,1.39,2.52,2.52,0,0,0,2.73-2.78c0-3.86-6.85-4.12-6.85-10.19a5.68,5.68,0,0,1,5.86-6,6.79,6.79,0,0,1,3.68,1Z"/></svg>